<svg width="27" height="28" viewBox="0 0 27 28" fill="none" xmlns="http://www.w3.org/2000/svg">
<g id="Iconly/Light-Outline/Bag">
<g id="Bag">
<path id="Combined-Shape" fill-rule="evenodd" clip-rule="evenodd" d="M13.5927 0.212463C17.0558 0.212463 19.9167 2.85126 20.2695 6.22619L20.3679 6.22736C22.2891 6.22736 24.6249 7.50326 25.4132 11.0819L26.4586 19.1732C26.8336 21.7846 26.3645 23.8793 25.0621 25.3818C23.7664 26.8763 21.7154 27.6673 19.1304 27.6673H8.06997C5.23066 27.6673 3.25254 26.9717 2.02169 25.5421C0.785534 24.1085 0.372157 21.9582 0.793483 19.152L1.82162 11.168C2.49734 7.50723 4.96832 6.22736 6.88151 6.22736C7.04668 4.70432 7.73343 3.25542 8.82292 2.16938C10.075 0.925273 11.8014 0.212463 13.5648 0.212463H13.5927ZM20.3679 8.21474H6.88151C6.29722 8.21474 4.34428 8.45058 3.78384 11.4767L2.761 19.4263C2.42844 21.6561 2.68548 23.2699 3.5268 24.2463C4.35753 25.2109 5.8441 25.6799 8.06997 25.6799H19.1304C20.519 25.6799 22.4149 25.403 23.5597 24.0807C24.4686 23.0327 24.7812 21.4719 24.4898 19.4408L23.4576 11.4224C23.0178 9.44692 21.8571 8.21474 20.3679 8.21474ZM17.4568 11.9035C18.0053 11.9035 18.481 12.3486 18.481 12.8972C18.481 13.4457 18.0663 13.8909 17.5177 13.8909H17.4568C16.9083 13.8909 16.4631 13.4457 16.4631 12.8972C16.4631 12.3486 16.9083 11.9035 17.4568 11.9035ZM9.73235 11.9035C10.2809 11.9035 10.7565 12.3486 10.7565 12.8972C10.7565 13.4457 10.3405 13.8909 9.79197 13.8909H9.73235C9.18383 13.8909 8.73866 13.4457 8.73866 12.8972C8.73866 12.3486 9.18383 11.9035 9.73235 11.9035ZM13.5887 2.19985H13.5688C12.322 2.19985 11.1071 2.702 10.226 3.57777C9.50831 4.29226 9.03891 5.23154 8.88707 6.22674L18.2666 6.22711C17.9261 3.95058 15.9575 2.19985 13.5887 2.19985Z" fill="#634832"/>
</g>
</g>
</svg>
