<svg width="37" height="37" viewBox="0 0 37 37" fill="none" xmlns="http://www.w3.org/2000/svg">
<g id="bi:plus-lg">
<path id="Vector" fill-rule="evenodd" clip-rule="evenodd" d="M18.734 9.44775C18.9445 9.44775 19.1463 9.53135 19.2951 9.68016C19.4439 9.82896 19.5275 10.0308 19.5275 10.2412V18.1759H27.4622C27.6726 18.1759 27.8745 18.2595 28.0233 18.4083C28.1721 18.5571 28.2557 18.7589 28.2557 18.9694C28.2557 19.1798 28.1721 19.3816 28.0233 19.5305C27.8745 19.6793 27.6726 19.7629 27.4622 19.7629H19.5275V27.6975C19.5275 27.908 19.4439 28.1098 19.2951 28.2586C19.1463 28.4074 18.9445 28.491 18.734 28.491C18.5236 28.491 18.3218 28.4074 18.173 28.2586C18.0242 28.1098 17.9406 27.908 17.9406 27.6975V19.7629H10.0059C9.79543 19.7629 9.59361 19.6793 9.4448 19.5305C9.296 19.3816 9.2124 19.1798 9.2124 18.9694C9.2124 18.7589 9.296 18.5571 9.4448 18.4083C9.59361 18.2595 9.79543 18.1759 10.0059 18.1759H17.9406V10.2412C17.9406 10.0308 18.0242 9.82896 18.173 9.68016C18.3218 9.53135 18.5236 9.44775 18.734 9.44775V9.44775Z" fill="white"/>
</g>
</svg>
