<svg width="41" height="41" viewBox="0 0 41 41" fill="none" xmlns="http://www.w3.org/2000/svg">
<g id="Iconly/Bold/Category">
<g id="Category">
<path id="Vector" d="M12.3696 23.4952C15.1889 23.4952 17.4484 25.7767 17.4484 28.616V35.4324C17.4484 38.2518 15.1889 40.5513 12.3696 40.5513H5.61116C2.81182 40.5513 0.532349 38.2518 0.532349 35.4324V28.616C0.532349 25.7767 2.81182 23.4952 5.61116 23.4952H12.3696ZM35.4444 23.4952C38.2437 23.4952 40.5232 25.7767 40.5232 28.616V35.4324C40.5232 38.2518 38.2437 40.5513 35.4444 40.5513H28.686C25.8666 40.5513 23.6072 38.2518 23.6072 35.4324V28.616C23.6072 25.7767 25.8666 23.4952 28.686 23.4952H35.4444ZM12.3696 0.561203C15.1889 0.561203 17.4484 2.86067 17.4484 5.68201V12.4984C17.4484 15.3377 15.1889 17.6172 12.3696 17.6172H5.61116C2.81182 17.6172 0.532349 15.3377 0.532349 12.4984V5.68201C0.532349 2.86067 2.81182 0.561203 5.61116 0.561203H12.3696ZM35.4444 0.561203C38.2437 0.561203 40.5232 2.86067 40.5232 5.68201V12.4984C40.5232 15.3377 38.2437 17.6172 35.4444 17.6172H28.686C25.8666 17.6172 23.6072 15.3377 23.6072 12.4984V5.68201C23.6072 2.86067 25.8666 0.561203 28.686 0.561203H35.4444Z" fill="#BD9A6F"/>
</g>
</g>
</svg>
