<svg width="25" height="25" viewBox="0 0 25 25" fill="none" xmlns="http://www.w3.org/2000/svg">
<g id="Checkmark">
<path id="Vector" d="M10.3671 18.6931C10.2295 18.6926 10.0934 18.6639 9.96737 18.6086C9.84133 18.5534 9.728 18.4728 9.63442 18.3719L4.75683 13.1832C4.5745 12.9889 4.47683 12.7301 4.4853 12.4638C4.49376 12.1975 4.60768 11.9454 4.80199 11.7631C4.9963 11.5807 5.25508 11.4831 5.52141 11.4915C5.78773 11.5 6.03978 11.6139 6.22212 11.8082L10.357 16.2141L18.7975 6.98082C18.8831 6.87415 18.9897 6.78613 19.1106 6.72215C19.2315 6.65816 19.3642 6.61958 19.5006 6.60875C19.637 6.59793 19.7741 6.6151 19.9036 6.65921C20.0331 6.70331 20.1522 6.77343 20.2536 6.86524C20.355 6.95706 20.4366 7.06864 20.4933 7.19312C20.55 7.31761 20.5807 7.45238 20.5834 7.58915C20.5862 7.72592 20.5609 7.86181 20.5092 7.98846C20.4575 8.11512 20.3805 8.22987 20.2828 8.32567L11.1097 18.3619C11.0171 18.4646 10.9041 18.5471 10.778 18.604C10.652 18.661 10.5155 18.6914 10.3771 18.6931H10.3671Z" fill="white"/>
</g>
</svg>
