<svg width="38" height="43" viewBox="0 0 38 43" fill="none" xmlns="http://www.w3.org/2000/svg">
<g id="Iconly/Bold/Delete">
<g id="Delete">
<path id="Vector" d="M33.5243 14.3183C33.9423 14.3183 34.3215 14.5007 34.6212 14.8089C34.9005 15.138 35.0411 15.5467 35.0004 15.9786C35.0004 16.1211 33.8831 30.2498 33.245 36.1968C32.8454 39.8464 30.4927 42.0621 26.9637 42.1229C24.2502 42.1837 21.5978 42.2046 18.9862 42.2046C16.2135 42.2046 13.502 42.1837 10.87 42.1229C7.45924 42.0411 5.10451 39.7856 4.72531 36.1968C4.06884 30.2288 2.972 16.1211 2.95162 15.9786C2.93123 15.5467 3.06986 15.138 3.35121 14.8089C3.62847 14.5007 4.02806 14.3183 4.44804 14.3183H33.5243ZM23.3064 0.279388C25.1596 0.279388 26.8151 1.57277 27.2942 3.41746L27.6367 4.94772C27.914 6.19498 28.9945 7.0775 30.2381 7.0775H36.3502C37.1657 7.0775 37.8446 7.75458 37.8446 8.61614V9.41271C37.8446 10.2533 37.1657 10.9514 36.3502 10.9514H1.6083C0.790773 10.9514 0.111877 10.2533 0.111877 9.41271V8.61614C0.111877 7.75458 0.790773 7.0775 1.6083 7.0775H7.7204C8.96198 7.0775 10.0425 6.19498 10.3218 4.94981L10.6419 3.52018C11.1393 1.57277 12.7764 0.279388 14.65 0.279388H23.3064Z" fill="white"/>
</g>
</g>
</svg>
