<svg width="32" height="29" viewBox="0 0 32 29" fill="none" xmlns="http://www.w3.org/2000/svg">
<g id="Iconly/Light-Outline/Filter">
<g id="Filter">
<path id="Combined-Shape" fill-rule="evenodd" clip-rule="evenodd" d="M25.7877 17.6712C28.8104 17.6712 31.2695 20.118 31.2695 23.1249C31.2695 26.1317 28.8104 28.5785 25.7877 28.5785C22.7632 28.5785 20.3024 26.1317 20.3024 23.1249C20.3024 20.118 22.7632 17.6712 25.7877 17.6712ZM25.7877 20.3135C24.2199 20.3135 22.9446 21.5747 22.9446 23.1249C22.9446 24.6767 24.2199 25.9362 25.7877 25.9362C27.3536 25.9362 28.6272 24.6767 28.6272 23.1249C28.6272 21.5747 27.3536 20.3135 25.7877 20.3135ZM12.9153 21.8721C13.6446 21.8721 14.2364 22.4639 14.2364 23.1932C14.2364 23.9225 13.6446 24.5143 12.9153 24.5143H1.8161C1.08684 24.5143 0.494971 23.9225 0.494971 23.1932C0.494971 22.4639 1.08684 21.8721 1.8161 21.8721H12.9153ZM5.92691 0.570587C8.95141 0.570587 11.4105 3.01907 11.4105 6.02596C11.4105 9.03284 8.95141 11.4778 5.92691 11.4778C2.90418 11.4778 0.443359 9.03284 0.443359 6.02596C0.443359 3.01907 2.90418 0.570587 5.92691 0.570587ZM5.92691 3.21284C4.36094 3.21284 3.08561 4.47407 3.08561 6.02596C3.08561 7.57608 4.36094 8.83555 5.92691 8.83555C7.49465 8.83555 8.76822 7.57608 8.76822 6.02596C8.76822 4.47407 7.49465 3.21284 5.92691 3.21284ZM28.964 4.7989C29.6933 4.7989 30.2851 5.39076 30.2851 6.12002C30.2851 6.84928 29.6933 7.44115 28.964 7.44115H17.8665C17.1373 7.44115 16.5454 6.84928 16.5454 6.12002C16.5454 5.39076 17.1373 4.7989 17.8665 4.7989H28.964Z" fill="white"/>
</g>
</g>
</svg>
