<svg width="29" height="27" viewBox="0 0 29 27" fill="none" xmlns="http://www.w3.org/2000/svg">
<g id="Iconly/Light-Outline/Heart">
<g id="Heart">
<path id="Combined-Shape" fill-rule="evenodd" clip-rule="evenodd" d="M14.4745 1.91356C16.6288 0.551535 19.4906 0.175256 21.963 0.967561C27.3408 2.70189 29.0102 8.56468 27.517 13.2297C25.213 20.5566 15.3728 26.0219 14.9554 26.2511C14.807 26.3332 14.6428 26.3743 14.4785 26.3743C14.3142 26.3743 14.1512 26.3346 14.0028 26.2537C13.5881 26.0272 3.81944 20.6427 1.43855 13.2311C1.43723 13.2311 1.43723 13.2297 1.43723 13.2297C-0.0572868 8.56335 1.60682 2.69924 6.97939 0.967561C9.50204 0.151408 12.2513 0.510462 14.4745 1.91356ZM7.58885 2.85955C3.24178 4.26132 2.15004 8.93698 3.33055 12.6242C5.18809 18.4036 12.5268 23.0766 14.4771 24.2332C16.434 23.0647 23.8258 18.34 25.6237 12.6295C26.8042 8.93831 25.7085 4.26265 21.3548 2.85955C19.2455 2.18252 16.7852 2.59457 15.0866 3.90889C14.7315 4.18183 14.2386 4.18713 13.8809 3.91684C12.0817 2.5641 9.73126 2.16794 7.58885 2.85955ZM20.0829 5.49072C21.8888 6.07501 23.1541 7.6742 23.3091 9.56486C23.3528 10.1121 22.9461 10.5917 22.3989 10.6354C22.371 10.6381 22.3445 10.6394 22.3167 10.6394C21.804 10.6394 21.3694 10.2459 21.327 9.72651C21.2396 8.63742 20.5108 7.71792 19.4734 7.38271C18.9501 7.21312 18.6639 6.65268 18.8322 6.13198C19.0031 5.60996 19.5582 5.32643 20.0829 5.49072Z" fill="#967259"/>
</g>
</g>
</svg>
