<svg width="22" height="20" viewBox="0 0 22 20" fill="none" xmlns="http://www.w3.org/2000/svg">
<g id="Iconly/Bold/Heart">
<g id="Heart">
<path id="Vector" d="M7.09381 0.457488C7.73452 0.476973 8.35489 0.588843 8.95594 0.793261H9.01595C9.05663 0.812584 9.08714 0.833941 9.10748 0.853265C9.33224 0.925472 9.54479 1.00683 9.74819 1.1187L10.1347 1.29159C10.2872 1.37295 10.4703 1.52449 10.572 1.58652C10.6737 1.64653 10.7855 1.70857 10.8771 1.77874C12.007 0.915302 13.3789 0.44748 14.7925 0.457488C15.4343 0.457488 16.075 0.548163 16.6842 0.752581C20.4379 1.97299 21.7905 6.09185 20.6606 9.69205C20.0199 11.5318 18.9724 13.2109 17.6005 14.5828C15.6366 16.4846 13.4816 18.1728 11.1618 19.6272L10.9076 19.7807L10.6432 19.617C8.31523 18.1728 6.14799 16.4846 4.16585 14.5727C2.80307 13.2007 1.75454 11.5318 1.10365 9.69205C-0.0455608 6.09185 1.30706 1.97299 5.1015 0.731224C5.39643 0.629524 5.70051 0.558333 6.00561 0.51867H6.12766C6.41343 0.476973 6.69718 0.457488 6.98194 0.457488H7.09381ZM16.1553 3.67138C15.7383 3.52799 15.2807 3.75274 15.1281 4.17989C14.9858 4.60703 15.2095 5.07485 15.6366 5.22638C16.2885 5.47046 16.7248 6.11219 16.7248 6.82308V6.85461C16.7055 7.0875 16.7757 7.31226 16.9181 7.48515C17.0605 7.65804 17.274 7.75872 17.4978 7.78008C17.9147 7.76889 18.2707 7.4343 18.3012 7.00614V6.88512C18.3317 5.46029 17.4683 4.16972 16.1553 3.67138Z" fill="#FF0202"/>
</g>
</g>
</svg>
