<svg width="27" height="27" viewBox="0 0 27 27" fill="none" xmlns="http://www.w3.org/2000/svg">
<g id="Iconly/Bold/Home">
<g id="Home">
<path id="Vector" d="M9.64788 25.0853V21.034C9.64788 19.9999 10.4924 19.1615 11.5341 19.1615H15.3422C15.8424 19.1615 16.3222 19.3588 16.676 19.71C17.0297 20.0611 17.2284 20.5374 17.2284 21.034V25.0853C17.2253 25.5152 17.3951 25.9287 17.7002 26.2338C18.0054 26.5389 18.4206 26.7105 18.8537 26.7105H21.4517C22.6651 26.7136 23.8298 26.2373 24.6889 25.3867C25.548 24.536 26.0309 23.381 26.0309 22.1764V10.635C26.0309 9.66201 25.5964 8.73904 24.8446 8.11477L16.0065 1.10751C14.4691 -0.121101 12.2664 -0.0814319 10.7749 1.20173L2.13852 8.11477C1.35115 8.72064 0.880555 9.64634 0.8573 10.635V22.1646C0.8573 24.6753 2.90746 26.7105 5.43647 26.7105H7.97518C8.87472 26.7105 9.60577 25.9901 9.61229 25.0971L9.64788 25.0853Z" fill="#634832"/>
</g>
</g>
</svg>
