<svg width="26" height="30" viewBox="0 0 26 30" fill="none" xmlns="http://www.w3.org/2000/svg">
<g id="Iconly/Light-Outline/Notification">
<g id="Notification">
<path id="Combined-Shape" fill-rule="evenodd" clip-rule="evenodd" d="M10.3824 26.2012C11.0687 26.9656 11.9498 27.3856 12.864 27.3856H12.8653C13.7835 27.3856 14.6685 26.9656 15.3562 26.1998C15.7245 25.7931 16.3525 25.76 16.7593 26.127C17.1673 26.494 17.2005 27.1233 16.8335 27.5301C15.7629 28.7185 14.3545 29.373 12.8653 29.373H12.8627C11.3774 29.3717 9.97167 28.7172 8.9051 27.5287C8.5381 27.122 8.57122 26.4926 8.9793 26.127C9.38737 25.7586 10.0154 25.7918 10.3824 26.2012ZM12.93 0.887146C18.8192 0.887146 22.7755 5.47404 22.7755 9.75752C22.7755 11.9609 23.3359 12.8949 23.9308 13.886C24.5191 14.8638 25.1855 15.9741 25.1855 18.0727C24.7231 23.4347 19.1253 23.8719 12.93 23.8719C6.73461 23.8719 1.13548 23.4347 0.678362 18.1575C0.674405 15.9741 1.34084 14.8638 1.92911 13.886L2.13678 13.5364C2.64811 12.6576 3.08444 11.7016 3.08444 9.75752C3.08444 5.47404 7.04067 0.887146 12.93 0.887146ZM12.93 2.87453C8.29935 2.87453 5.07183 6.50218 5.07183 9.75752C5.07183 12.512 4.30735 13.7853 3.63164 14.9088C3.08974 15.8111 2.66179 16.5239 2.66179 18.0727C2.88305 20.5716 4.53259 21.8846 12.93 21.8846C21.281 21.8846 22.9822 20.5133 23.2021 17.9866C23.1981 16.5239 22.7702 15.8111 22.2283 14.9088C21.5526 13.7853 20.7881 12.512 20.7881 9.75752C20.7881 6.50218 17.5606 2.87453 12.93 2.87453Z" fill="#967259"/>
</g>
</g>
</svg>
