<svg width="22" height="27" viewBox="0 0 22 27" fill="none" xmlns="http://www.w3.org/2000/svg">
<g id="Iconly/Light-Outline/Profile">
<g id="Profile">
<path id="Combined-Shape" fill-rule="evenodd" clip-rule="evenodd" d="M21.7093 21.6667C21.7093 26.0337 15.7207 26.5385 11.2173 26.5385L10.895 26.5382C8.02579 26.5312 0.722534 26.3501 0.722534 21.6402C0.722534 17.3624 6.47052 16.7907 10.9397 16.7691L11.5395 16.7687C14.4085 16.7757 21.7093 16.9569 21.7093 21.6667ZM11.2173 18.7558C5.57176 18.7558 2.70992 19.7257 2.70992 21.6402C2.70992 23.5719 5.57176 24.5511 11.2173 24.5511C16.8614 24.5511 19.722 23.5812 19.722 21.6667C19.722 19.735 16.8614 18.7558 11.2173 18.7558ZM11.2173 0.21167C15.0966 0.21167 18.2513 3.36764 18.2513 7.24702C18.2513 11.1264 15.0966 14.281 11.2173 14.281H11.1749C7.30344 14.2691 4.16734 11.1118 4.18055 7.24304C4.18055 3.36764 7.33656 0.21167 11.2173 0.21167ZM11.2173 2.10366C8.3806 2.10366 6.07255 4.41036 6.07255 7.24702C6.06331 10.0744 8.3541 12.3798 11.1788 12.3904L11.2173 13.3364V12.3904C14.0526 12.3904 16.3593 10.0824 16.3593 7.24702C16.3593 4.41036 14.0526 2.10366 11.2173 2.10366Z" fill="#634832"/>
</g>
</g>
</svg>
