<svg width="26" height="26" viewBox="0 0 26 26" fill="none" xmlns="http://www.w3.org/2000/svg">
<g id="Iconly/Light-Outline/Search">
<g id="Search">
<path id="Combined-Shape" fill-rule="evenodd" clip-rule="evenodd" d="M12.2014 0.000205994C18.8485 0.000205994 24.2552 5.40697 24.2552 12.054C24.2552 15.1901 23.0517 18.0503 21.0823 20.197L24.9576 24.0641C25.3202 24.4268 25.3215 25.0135 24.9588 25.3762C24.7781 25.5594 24.5392 25.6498 24.3015 25.6498C24.0651 25.6498 23.8274 25.5594 23.6455 25.3787L19.7234 21.4676C17.6603 23.1199 15.0443 24.1091 12.2014 24.1091C5.55436 24.1091 0.146362 18.7011 0.146362 12.054C0.146362 5.40697 5.55436 0.000205994 12.2014 0.000205994ZM12.2014 1.85692C6.57803 1.85692 2.00308 6.43064 2.00308 12.054C2.00308 17.6774 6.57803 22.2524 12.2014 22.2524C17.8236 22.2524 22.3985 17.6774 22.3985 12.054C22.3985 6.43064 17.8236 1.85692 12.2014 1.85692Z" fill="#967259"/>
</g>
</g>
</svg>
