<svg width="16" height="15" viewBox="0 0 16 15" fill="none" xmlns="http://www.w3.org/2000/svg">
<path id="Star 1" d="M6.53262 1.26575C6.87466 0.21306 8.36393 0.21306 8.70597 1.26575L9.67153 4.23742C9.82449 4.7082 10.2632 5.02694 10.7582 5.02694H13.8828C14.9897 5.02694 15.4499 6.44332 14.5544 7.09391L12.0265 8.93051C11.6261 9.22147 11.4585 9.7372 11.6115 10.208L12.577 13.1796C12.9191 14.2323 11.7142 15.1077 10.8188 14.4571L8.2909 12.6205C7.89043 12.3296 7.34816 12.3296 6.9477 12.6205L4.41984 14.4571C3.52437 15.1077 2.31952 14.2323 2.66156 13.1796L3.62712 10.208C3.78008 9.7372 3.61251 9.22147 3.21205 8.93051L0.684187 7.09391C-0.21128 6.44332 0.248929 5.02694 1.35579 5.02694H4.4804C4.9754 5.02694 5.4141 4.7082 5.56707 4.23742L6.53262 1.26575Z" fill="#D17842"/>
</svg>
